<svg width="104" height="52" viewBox="0 0 104 52" fill="none" xmlns="http://www.w3.org/2000/svg">
<rect width="103.133" height="52" fill="white"/>
<g clip-path="url(#clip0_310_54669)">
<path d="M87.5992 5.33615C87.2655 5.40308 86.9436 5.64357 86.8034 5.93505C86.7718 6.00004 85.8023 8.77233 84.649 12.0941C83.4977 15.4161 82.5461 18.1627 82.5323 18.2C82.5165 18.2473 82.5046 18.2592 82.4929 18.2395C82.4849 18.2238 81.8512 16.5156 81.085 14.4448C80.3188 12.3739 79.6712 10.6342 79.6435 10.583C79.4244 10.1495 78.9051 9.89541 78.439 9.99192C78.1902 10.0431 78.0126 10.1377 77.8369 10.3171C77.5565 10.5988 77.4459 10.9632 77.5249 11.3357C77.5604 11.5012 81.4781 22.0874 81.553 22.2215C81.7425 22.5605 82.1513 22.793 82.5541 22.793C82.6824 22.793 82.9313 22.7338 83.0418 22.6788C83.2472 22.5743 83.4486 22.3733 83.5492 22.1744C83.6182 22.0345 88.9104 6.77658 88.9359 6.63863C88.9459 6.57753 88.9517 6.46137 88.9459 6.38043C88.9143 5.97843 88.6931 5.63754 88.3376 5.44452C88.1421 5.33809 87.8223 5.29276 87.5992 5.33615Z" fill="#67DEBC"/>
<path d="M81.6387 12.0001C80.9377 12.0769 80.7462 12.1026 80.7285 12.1184C80.7226 12.1242 80.7304 12.1695 80.7482 12.2168C80.7759 12.2956 81.0424 13.072 81.3129 13.8581C81.3761 14.0414 81.5143 14.4412 81.619 14.7447C81.7238 15.0481 81.8659 15.4639 81.9369 15.6707C82.0059 15.8756 82.0713 16.049 82.0791 16.0569C82.087 16.0628 82.2409 16.0649 82.4207 16.0589L82.7485 16.0509L82.7723 15.9779C82.7861 15.9385 82.8236 15.8361 82.8532 15.7493C82.8848 15.6625 83.0211 15.2724 83.1594 14.8823C83.2976 14.4922 83.4339 14.1021 83.4655 14.0153C83.5228 13.8557 83.659 13.4734 83.8506 12.9317C83.908 12.7683 83.9967 12.5219 84.046 12.382C84.0954 12.2402 84.1309 12.1199 84.1231 12.1121C84.1034 12.0964 83.8822 12.0629 83.6135 12.0353C83.5049 12.0254 83.3292 12.0077 83.2245 11.9958C82.9952 11.9724 81.8618 11.9744 81.6387 12.0001Z" fill="black"/>
<path d="M42.9803 12.3413C42.9625 12.3905 42.9664 27.213 42.9842 27.2426C42.998 27.2622 43.5153 27.2663 45.5077 27.2622L48.0134 27.2564L48.0193 25.4457C48.0212 24.1434 48.0292 23.6272 48.045 23.6074C48.0647 23.5858 48.2997 23.5817 49.3739 23.5817C51.0741 23.5817 51.4906 23.5521 52.2983 23.3826C54.6836 22.8822 56.3048 21.4754 56.8301 19.4499C56.9545 18.973 57.0078 18.5179 57.0078 17.9386C57.0078 16.9712 56.8241 16.1733 56.4253 15.393C56.0343 14.6285 55.4638 14.0001 54.7074 13.4957C54.3895 13.2829 54.1526 13.1548 53.7004 12.9519C53.2166 12.7351 52.4149 12.5184 51.7258 12.4199C51.0564 12.3234 51.1689 12.3254 46.9551 12.3174C43.3042 12.3098 42.9922 12.3117 42.9803 12.3413ZM50.1165 16.2149C50.7641 16.2602 51.1907 16.4278 51.4908 16.7507C51.7812 17.0621 51.9114 17.4364 51.9134 17.9468C51.9134 18.4867 51.7732 18.8708 51.4631 19.1802C51.1866 19.4542 50.8549 19.5999 50.3456 19.6707C50.168 19.6945 49.931 19.7003 49.0799 19.6964L48.0333 19.6906L48.0274 17.9686C48.0255 16.7136 48.0294 16.2406 48.0452 16.2209C48.0629 16.1993 48.2308 16.1933 48.9496 16.1933C49.4334 16.1931 49.9585 16.203 50.1165 16.2149Z" fill="black"/>
<path d="M58.6707 12.3346C58.6649 12.3484 58.6627 15.7116 58.6649 19.808L58.6707 27.2557H61.1884H63.706L63.716 25.3839L63.7259 23.5121H64.4051H65.0843L65.3725 23.9357C65.5324 24.1682 66.0971 25.0016 66.6263 25.7878C67.1575 26.5739 67.6058 27.2281 67.6216 27.2419C67.6632 27.2734 72.9964 27.2773 72.9964 27.2458C72.9964 27.2281 72.5719 26.5975 71.6675 25.2755C71.5154 25.0529 71.154 24.5249 70.8678 24.1032C70.5796 23.6796 70.2457 23.193 70.1274 23.0196C70.0069 22.8463 69.9082 22.6887 69.9082 22.669C69.9062 22.6494 69.9279 22.6217 69.9556 22.606C70.4314 22.3342 70.6408 22.1962 70.9171 21.9617C71.7129 21.2957 72.2579 20.4386 72.5107 19.4535C72.6509 18.9058 72.6883 18.5905 72.6883 17.9461C72.6883 17.4103 72.6645 17.1717 72.5698 16.695C72.4869 16.2714 72.3309 15.828 72.1195 15.4104C71.8806 14.9376 71.618 14.5809 71.1993 14.1612C70.7471 13.7081 70.3403 13.4184 69.7144 13.107C69.5761 13.0382 69.4577 12.981 69.4517 12.981C69.4457 12.981 69.4043 12.9633 69.3569 12.9436C68.8454 12.715 68.0319 12.5004 67.3289 12.4077C66.6753 12.3231 66.8135 12.3251 62.6433 12.3171C59.3994 12.311 58.6787 12.313 58.6707 12.3346ZM65.7992 16.2123C66.1112 16.2339 66.2217 16.2537 66.4606 16.3245C67.0668 16.5037 67.436 16.9137 67.5684 17.5521C67.6119 17.7609 67.6 18.2339 67.5467 18.4485C67.371 19.1538 66.8812 19.5478 66.0361 19.67C65.884 19.6916 65.5958 19.6996 64.7783 19.6996H63.716V17.9599C63.716 17.0024 63.7218 16.2123 63.7298 16.2064C63.7495 16.1846 65.4911 16.1905 65.7992 16.2123Z" fill="black"/>
<path d="M87.0297 13.2099C87.0139 13.2494 87.0001 13.2848 87.0001 13.2887C87.0001 13.2964 86.6387 14.3112 86.4866 14.7349C86.4334 14.8807 86.3049 15.2393 86.2004 15.5329C86.0957 15.8246 85.9673 16.1851 85.9141 16.3308C85.7838 16.6914 85.5093 17.4638 85.4362 17.6746L85.3788 17.846L85.4401 17.98C85.8468 18.843 85.9239 20.1139 85.6277 21.0991C85.452 21.6863 85.1696 22.1572 84.739 22.5866C84.117 23.2092 83.3489 23.5225 82.4486 23.5225C81.6608 23.5225 80.94 23.2643 80.3515 22.7718C80.006 22.4821 79.7314 22.1295 79.5163 21.6999C79.2024 21.0714 79.0838 20.4646 79.1076 19.6213C79.1254 19.0263 79.2043 18.6085 79.39 18.1456L79.4809 17.9211L79.3387 17.5547C79.2597 17.3537 79.0663 16.8591 78.9103 16.4593C78.7543 16.0573 78.5725 15.5963 78.5094 15.4346C78.4462 15.2712 78.2685 14.82 78.1164 14.4298C77.7196 13.4052 77.6681 13.2772 77.6484 13.2575C77.6268 13.2359 77.133 13.563 76.8507 13.7856C75.9482 14.5009 75.2236 15.4012 74.7379 16.4139C74.3824 17.1587 74.1809 17.8561 74.0526 18.8039C74.0033 19.1724 74.0033 20.3821 74.0526 20.7603C74.1217 21.2804 74.187 21.6017 74.3073 22.0252C74.5897 23.0222 75.0557 23.8891 75.7665 24.7442C75.9779 25.0003 76.4991 25.5107 76.7577 25.7175C77.2928 26.145 77.9899 26.5688 78.5684 26.8209C78.6396 26.8524 78.7245 26.8879 78.756 26.9036C78.8746 26.9548 79.2359 27.0869 79.4826 27.1657C80.1006 27.3648 80.857 27.5105 81.55 27.5617C82.168 27.607 82.4642 27.6169 82.7781 27.599C83.5659 27.5556 83.9234 27.5144 84.5019 27.4C84.9145 27.3192 85.3667 27.1951 85.6867 27.0768C85.7638 27.0492 85.8644 27.0137 85.9137 26.996C85.9631 26.9803 86.0559 26.9408 86.121 26.9133C86.1861 26.8838 86.2712 26.8464 86.3086 26.8326C86.5613 26.7341 87.2366 26.3617 87.6001 26.1193C88.773 25.3351 89.7149 24.2021 90.2973 22.8722C90.4927 22.429 90.6764 21.8044 90.7692 21.2744C90.8067 21.0695 90.8246 20.9354 90.8917 20.37C90.9213 20.1118 90.9055 19.2884 90.864 18.9317C90.7179 17.6983 90.4059 16.7546 89.8293 15.7969C89.304 14.926 88.6012 14.1676 87.75 13.5587C87.5566 13.4208 87.1063 13.139 87.0787 13.139C87.0693 13.139 87.0455 13.1706 87.0297 13.2099Z" fill="black"/>
<path d="M54.2308 23.9587C53.9504 23.9745 53.5732 24.0434 53.3244 24.1243C52.9118 24.2562 52.4419 24.5479 52.1654 24.8415C51.719 25.3124 51.5156 25.8366 51.5156 26.5084C51.5156 27.204 51.7348 27.7438 52.2106 28.2147C52.6864 28.6875 53.2807 28.9515 54.0646 29.0422C54.3686 29.0757 55.0203 29.056 55.3085 29.0007C55.9068 28.8904 56.3986 28.6501 56.7915 28.2758C57.2792 27.8127 57.5241 27.2807 57.5695 26.5773C57.6427 25.4858 57.0187 24.5755 55.9208 24.1677C55.463 23.998 54.8448 23.9212 54.2308 23.9587Z" fill="#67DEBC"/>
<path d="M13.1484 34.4282V42.2207H15.7844H18.4205V40.2602V38.2996L19.1353 38.3035L19.8502 38.3094L21.1752 40.2639L22.4983 42.2184L25.3102 42.2203H28.1201L28.0847 42.1651C28.0669 42.1355 27.3323 41.0577 26.4537 39.7712C25.577 38.4847 24.8582 37.4246 24.8582 37.4167C24.8582 37.4087 24.9175 37.3713 24.9904 37.334C25.0633 37.2966 25.2234 37.2021 25.3459 37.1252C26.1555 36.607 26.7932 35.9214 27.196 35.1312C27.6048 34.3294 27.7805 33.5411 27.7805 32.5167C27.7805 31.4962 27.6028 30.6941 27.1999 29.8962C26.5523 28.6194 25.5017 27.7288 23.9735 27.1653C23.3159 26.9229 22.6052 26.7713 21.6395 26.6727C21.4736 26.655 20.3006 26.647 17.2817 26.6412L13.1488 26.6332V34.4282H13.1484ZM20.8357 30.7241C21.833 30.8541 22.3996 31.4059 22.4648 32.3103C22.5359 33.2719 22.1409 33.9338 21.3373 34.1978C20.9601 34.322 20.9186 34.3259 19.6115 34.3338L18.4208 34.3418V32.5192V30.6947H19.5148C20.3755 30.6945 20.6598 30.7004 20.8357 30.7241Z" fill="#67DEBC"/>
<path d="M42.9832 29.0102V30.7145H42.144H41.3047V32.5468V34.3793L42.1399 34.3832L42.9731 34.389L42.983 36.2904C42.9949 38.3237 42.9969 38.3513 43.1036 38.8814C43.5023 40.8674 44.8689 42.0595 47.1001 42.3668C47.6925 42.4475 48.7903 42.4594 49.3808 42.3905C50.1115 42.3037 50.6959 42.1502 51.1678 41.9177L51.4127 41.7975L51.1697 41.098C51.0375 40.7137 50.7649 39.9276 50.5676 39.3522L50.2062 38.306L50.0602 38.3887C49.7936 38.5405 49.4204 38.635 49.0867 38.635C48.5752 38.635 48.2159 38.3652 48.064 37.8667C48.0343 37.7701 48.0304 37.5769 48.0244 36.0678L48.0164 34.3793H49.2722H50.526V32.547V30.7147H49.2722H48.0183V29.0104V27.3061H45.5007H42.983V29.0102H42.9832Z" fill="#67DEBC"/>
<path d="M33.6421 29.8297C32.0841 29.9184 30.4669 30.3263 29.2979 30.9232C29.14 31.004 28.9662 31.0985 28.9108 31.1341L28.8102 31.1972L29.608 32.8404C30.0463 33.7448 30.4077 34.4896 30.4135 34.4935C30.4174 34.4993 30.5044 34.4501 30.605 34.3851C31.2093 33.995 31.932 33.7368 32.7732 33.6087C33.1562 33.5496 33.873 33.5438 34.2107 33.5969C35.127 33.7407 35.6719 34.182 35.824 34.9052L35.8378 34.9702H34.7142C33.1484 34.9721 32.5324 35.0036 31.7918 35.1278C31.2409 35.2204 30.7748 35.3465 30.3681 35.514C28.9108 36.1149 28.1802 37.2379 28.2375 38.7926C28.2987 40.4595 29.3196 41.7087 31.0256 42.2111C31.2686 42.2821 31.7048 42.3648 32.0326 42.4021C32.3208 42.4337 33.1601 42.4337 33.4346 42.4021C34.3884 42.2918 35.0834 41.9885 35.6165 41.4544C35.8495 41.2199 35.9897 41.0366 36.128 40.7806L36.2089 40.6348L36.2128 41.4228L36.2187 42.2109H38.5586H40.8986L40.9045 38.95C40.9125 35.0803 40.9045 34.8558 40.7584 34.0833C40.4306 32.3415 39.4827 31.1357 37.9072 30.452C36.7857 29.9655 35.2357 29.7391 33.6421 29.8297ZM35.8536 37.8487V38.2842L35.7746 38.4517C35.5455 38.9403 35.1448 39.2615 34.6372 39.366C34.3667 39.4232 34.0192 39.4113 33.7882 39.3364C33.2866 39.1769 33.0101 38.7552 33.0852 38.2645C33.1583 37.8075 33.4742 37.5434 34.0744 37.4428C34.1772 37.4251 34.4793 37.4171 35.0401 37.4152L35.8536 37.4133V37.8487V37.8487Z" fill="#67DEBC"/>
<path d="M66.7327 29.8197C65.4196 29.9222 64.4303 30.3162 63.5833 31.0747L63.4154 31.2264L63.4095 30.6256L63.4056 30.0247L61.0104 30.0286L58.6172 30.0345V36.1227V42.2109H61.1346H63.6523L63.6642 39.0684C63.6741 35.967 63.6761 35.9238 63.7174 35.709C63.8596 34.9683 64.1735 34.4994 64.6989 34.2392C64.9496 34.1151 65.1511 34.0639 65.4393 34.0501C66.2035 34.0127 66.6812 34.3437 66.9084 35.0648C67.0328 35.4608 67.0248 35.2304 67.0367 38.8812L67.0486 42.2109H69.5662H72.0839V38.428C72.0839 34.312 72.0878 34.4717 71.9733 33.7979C71.7462 32.4561 71.1894 31.4749 70.2614 30.7795C69.5623 30.2553 68.7825 29.9599 67.7992 29.8475C67.6075 29.8255 66.8946 29.8078 66.7327 29.8197Z" fill="#67DEBC"/>
<path d="M78.5879 29.8299C77.4249 29.9126 76.3309 30.3204 75.3969 31.0179C75.079 31.2563 74.5991 31.7351 74.3583 32.0583C73.5586 33.1302 73.1953 34.2533 73.1953 35.6601C73.1953 36.9526 73.5034 38.0224 74.1569 39.0056C74.8499 40.0499 75.8214 40.7906 77.0594 41.2164C78.0567 41.5611 79.269 41.638 80.3136 41.4232C81.1114 41.2597 81.767 40.9188 82.2743 40.4085L82.4165 40.2647V40.5188C82.4165 41.3049 82.2073 41.8841 81.7668 42.3196C81.4093 42.6724 80.977 42.8615 80.2898 42.9638C79.9581 43.0131 79.1149 43.0131 78.7437 42.9638C77.632 42.8161 76.459 42.4023 75.768 41.9137C75.7009 41.8664 75.6377 41.8269 75.6277 41.8269C75.612 41.8269 73.9178 45.2355 73.9295 45.2454C73.9334 45.2473 74.0184 45.3007 74.121 45.3616C75.6317 46.2856 77.9024 46.796 80.2838 46.7467C81.0065 46.731 81.4448 46.6936 82.0314 46.593C83.9705 46.2659 85.479 45.3754 86.3734 44.0278C86.9836 43.1096 87.3034 42.0929 87.4358 40.6546C87.4555 40.4379 87.4616 39.2813 87.4616 35.2067V30.0348L85.0683 30.0289L82.6731 30.025L82.6692 30.7165L82.6634 31.4081L82.5943 31.3135C82.312 30.9195 81.8656 30.5451 81.3937 30.3046C80.6434 29.9225 79.6461 29.755 78.5879 29.8299ZM80.6987 33.7488C81.4707 33.8434 82.087 34.2907 82.3377 34.9349C82.4286 35.1674 82.4602 35.3624 82.4602 35.6698C82.4602 36.2275 82.3081 36.6293 81.9547 36.9958C81.6014 37.3624 81.1786 37.5593 80.6239 37.6124C79.5931 37.7129 78.677 37.1692 78.3925 36.2903C78.3273 36.0913 78.3055 35.9278 78.3055 35.65C78.3074 35.1396 78.4535 34.7357 78.7597 34.395C79.0459 34.0798 79.51 33.8354 79.9484 33.7704C80.0293 33.7585 80.1182 33.7447 80.1459 33.7408C80.2524 33.725 80.5408 33.7309 80.6987 33.7488Z" fill="#67DEBC"/>
<path d="M52.0078 36.1325V42.2207H54.5354H57.0629V36.1325V30.0443H54.5354H52.0078V36.1325Z" fill="#67DEBC"/>
</g>
<defs>
<clipPath id="clip0_310_54669">
<rect width="78" height="41.6" fill="white" transform="translate(13 5.19922)"/>
</clipPath>
</defs>
</svg>
