<svg width="24" height="24" viewBox="0 0 24 24" fill="none" xmlns="http://www.w3.org/2000/svg">
<path d="M3.51562 24H20.4844C22.4229 24 24 22.4229 24 20.4844V3.51562C24 1.57709 22.4229 0 20.4844 0H3.51562C1.57709 0 0 1.57709 0 3.51562V20.4844C0 22.4229 1.57709 24 3.51562 24ZM1.40625 3.51562C1.40625 2.35254 2.35254 1.40625 3.51562 1.40625H20.4844C21.6475 1.40625 22.5938 2.35254 22.5938 3.51562V20.4844C22.5938 21.6475 21.6475 22.5938 20.4844 22.5938H3.51562C2.35254 22.5938 1.40625 21.6475 1.40625 20.4844V3.51562Z" fill="#9CA7BA"/>
<path d="M16.5771 11.2083L9.37706 6.6882C9.09956 6.51402 8.74988 6.5048 8.46374 6.66409C8.17754 6.82338 8 7.12616 8 7.4548V16.495C8 16.8236 8.17754 17.1263 8.46374 17.2857C8.5997 17.3614 8.74994 17.399 8.9 17.399C9.06578 17.399 9.23132 17.353 9.377 17.2616L16.577 12.7415C16.8402 12.5763 17 12.2866 17 11.9749C17 11.6632 16.8402 11.3735 16.5771 11.2083ZM9.80006 14.8639V9.08583L14.4019 11.9749L9.80006 14.8639Z" fill="#9CA7BA" stroke="#FAFAFA" stroke-width="0.3"/>
</svg>
